<?xml version="1.0" encoding="UTF-8"?>
<svg id="_Слой_1" data-name="Слой 1" xmlns="http://www.w3.org/2000/svg" xmlns:xlink="http://www.w3.org/1999/xlink" viewBox="0 0 48 48">
  <defs>
    <style>
      .cls-1 {
        fill: url(#_Безымянный_градиент_2);
        fill-rule: evenodd;
      }

      .cls-2 {
        fill: #fff;
      }
    </style>
    <linearGradient id="_Безымянный_градиент_2" data-name="Безымянный градиент 2" x1="-336.82" y1="315.08" x2="-425.03" y2="308.28" gradientTransform="translate(411 336.38) scale(1 -1)" gradientUnits="userSpaceOnUse">
      <stop offset=".22" stop-color="#fff" stop-opacity="0"/>
      <stop offset=".42" stop-color="#fff"/>
      <stop offset=".86" stop-color="#fff" stop-opacity="0"/>
    </linearGradient>
  </defs>
  <rect width="48" height="48"/>
  <g id="Logo">
    <path class="cls-2" d="M44.26,26.24c0,1.96-.66,3.48-1.97,4.56-1.31,1.06-3,1.59-5.06,1.59-2.28,0-4.22-.47-5.81-1.42v-2.88c1.57,1.21,3.48,1.82,5.74,1.82,1.35,0,2.42-.31,3.19-.93.77-.62,1.16-1.51,1.16-2.68,0-.49-.1-.92-.29-1.29-.17-.4-.47-.75-.9-1.06-.41-.33-.81-.6-1.19-.79-.37-.22-.87-.49-1.52-.79-.13-.07-.32-.15-.58-.26-.92-.42-1.63-.76-2.13-1.03-.47-.26-1.04-.65-1.71-1.16-.65-.53-1.12-1.14-1.42-1.82-.3-.68-.45-1.48-.45-2.38,0-1.9.66-3.37,1.97-4.43,1.33-1.08,3-1.62,5-1.62,1.87,0,3.46.34,4.77,1.03v2.81c-1.31-.88-2.88-1.32-4.71-1.32-1.31,0-2.35.32-3.13.96-.77.62-1.16,1.43-1.16,2.45,0,.53.1,1,.29,1.42.22.42.58.82,1.1,1.19.52.35.96.63,1.32.83.37.18.94.44,1.71.79.73.33,1.29.6,1.68.79.39.18.88.47,1.48.89.62.4,1.09.79,1.39,1.19.32.37.6.88.84,1.52.26.62.39,1.29.39,2.02Z"/>
    <path class="cls-2" d="M27.95,32.14h-12.08V10.15h11.77v2.56h-9.27v6.7h8.52v2.25h-8.52v7.91h9.58v2.56Z"/>
    <path class="cls-1" d="M43.17,47.47c9.94,0,19.29-1.04,27.45-2.88-4.48.53-9.2.81-14.06.81-29.94,0-54.2-10.71-54.2-23.92C2.35,12.4,13.84,4.5,30.75.45,4.95,2.8-14.35,12.31-14.35,23.68c0,13.14,25.75,23.79,57.52,23.79Z"/>
  </g>
  <path class="cls-2" d="M-.79,22.74L.45,9.02l.91,13.72L.12,36.46l-.91-13.72Z"/>
  <path class="cls-2" d="M.34,20.83l13.3,2-13.41.19-13.3-2,13.41-.19Z"/>
  <path class="cls-2" d="M.45,21.39l18.44,22.87L-.1,21.96-17.49,0,.45,21.39Z"/>
  <path class="cls-2" d="M-.51,22.18l13.33-13.46L.09,22.68l-9.36,9.46L-.51,22.18Z"/>
</svg>